<svg width="99" height="60" viewBox="0 0 99 60" fill="none" xmlns="http://www.w3.org/2000/svg">
<g clip-path="url(#clip0_765_6)">
<path d="M95.18 57.8899C96.3 57.8899 97.3 57.8499 98.18 57.7899L98.68 57.7299L98.71 59.4999C97.33 59.8399 96.08 59.9999 94.97 59.9999C93.61 59.9999 92.63 59.6399 92.01 58.9299C91.41 58.2099 91.1 57.0499 91.1 55.4299C91.1 52.2199 92.42 50.6099 95.07 50.6099C97.69 50.6099 99 51.9599 99 54.6599L98.82 56.3299H93.52C93.54 56.8799 93.69 57.2799 93.97 57.5299C94.25 57.7699 94.65 57.8899 95.18 57.8899ZM96.61 54.4999C96.61 53.7899 96.5 53.2899 96.27 52.9999C96.05 52.7199 95.65 52.5799 95.07 52.5799C94.51 52.5799 94.11 52.7299 93.87 53.0199C93.64 53.3199 93.52 53.8099 93.51 54.4999H96.61ZM87.22 50.6099C87.85 50.6099 88.65 50.7099 89.62 50.8999L90.11 50.9999L90.03 52.8999C89.09 52.8099 88.38 52.7599 87.93 52.7599C87.1 52.7599 86.55 52.9399 86.28 53.2899C86.01 53.6399 85.88 54.3099 85.88 55.2899C85.88 56.2699 86.01 56.9399 86.28 57.3099C86.55 57.6699 87.11 57.8499 87.94 57.8499L90.04 57.7099L90.11 59.6299C89.1429 59.8401 88.159 59.964 87.17 59.9999C85.84 59.9999 84.88 59.6299 84.3 58.8799C83.72 58.1399 83.43 56.9399 83.43 55.2899C83.43 53.6399 83.73 52.4499 84.33 51.7099C84.93 50.9799 85.89 50.6099 87.23 50.6099H87.22ZM76.59 59.7899H74.17V50.8299H76.57V51.3299C77.2433 50.8956 78.0196 50.6472 78.82 50.6099C80.02 50.6099 80.85 50.9699 81.31 51.6699C81.77 52.3699 82 53.4699 82 54.9299V59.7899H79.58V54.9999C79.58 54.2399 79.49 53.6699 79.31 53.3099C79.13 52.9499 78.77 52.7599 78.23 52.7599C77.73 52.7599 77.26 52.8499 76.8 53.0099L76.59 53.0899V59.7899ZM72.14 57.3499C72.16 57.6399 72.21 57.8399 72.28 57.9499C72.35 58.0599 72.5 58.1499 72.73 58.1899L72.66 59.9999C72.05 59.9999 71.56 59.9599 71.19 59.8799C70.7955 59.783 70.4224 59.6135 70.09 59.3799C69.22 59.7899 68.34 59.9999 67.44 59.9999C65.58 59.9999 64.64 59.0199 64.64 57.0599C64.64 56.1099 64.9 55.4299 65.42 55.0299C65.94 54.6299 66.72 54.3899 67.8 54.3299L69.72 54.1799V53.6199C69.72 53.2499 69.64 52.9999 69.47 52.8599C69.3 52.7199 69.03 52.6599 68.67 52.6599L65.27 52.7999L65.2 51.1299C66.49 50.7899 67.71 50.6099 68.87 50.6099C70.03 50.6099 70.87 50.8499 71.37 51.3299C71.88 51.8099 72.14 52.5699 72.14 53.6299V57.3499ZM68.08 55.9899C67.41 56.0499 67.08 56.4099 67.08 57.0599C67.08 57.7199 67.37 58.0499 67.96 58.0499C68.41 58.0499 68.91 57.9799 69.45 57.8299L69.71 57.7599V55.8499L68.08 55.9899ZM52.82 59.7899H50.41V50.8299H52.8V51.3299C53.4337 50.9132 54.1635 50.6653 54.92 50.6099C55.9 50.6099 56.65 50.8899 57.17 51.4499C58.1001 50.936 59.1381 50.6482 60.2 50.6099C61.39 50.6099 62.21 50.9599 62.68 51.6399C63.14 52.3299 63.37 53.4299 63.37 54.9399V59.7899H60.96V54.9999C60.96 54.2399 60.87 53.6699 60.7 53.3099C60.54 52.9499 60.2 52.7599 59.7 52.7599C59.31 52.7599 58.84 52.8499 58.3 53.0099L58.02 53.1099C58.07 53.9999 58.09 54.6799 58.09 55.1499V59.7899H55.68V55.1899C55.68 54.2899 55.6 53.6699 55.45 53.3099C55.29 52.9499 54.95 52.7599 54.42 52.7599C53.95 52.7599 53.49 52.8499 53.03 53.0099L52.82 53.0899V59.7899ZM43.98 59.7899V50.8299H46.37V51.7799C47.37 51.1799 48.33 50.7899 49.24 50.6099V53.0299C48.27 53.2299 47.44 53.4399 46.74 53.6599L46.38 53.7799V59.7799L43.98 59.7899ZM35.15 51.8399C35.79 51.0199 36.85 50.6099 38.35 50.6099C39.83 50.6099 40.89 51.0199 41.53 51.8399C42.16 52.6599 42.48 53.8099 42.48 55.2899C42.48 58.4299 41.1 59.9999 38.34 59.9999C35.58 59.9999 34.2 58.4299 34.2 55.2899C34.2 53.8099 34.52 52.6599 35.15 51.8399ZM37.02 57.3099C37.26 57.7399 37.71 57.9499 38.34 57.9499C38.98 57.9499 39.42 57.7399 39.67 57.3099C39.91 56.8799 40.03 56.2099 40.03 55.2899C40.03 54.3699 39.91 53.6899 39.67 53.2899C39.42 52.8599 38.97 52.6599 38.34 52.6599C37.71 52.6599 37.26 52.8599 37.02 53.2799C36.7307 53.9049 36.6034 54.5928 36.65 55.2799C36.65 56.1999 36.77 56.8799 37.02 57.3099ZM31.42 52.8699V59.7899H29.02V50.4299C29.02 49.1399 29.21 48.2499 29.59 47.7599C29.98 47.2699 30.66 47.0299 31.64 47.0299C32.08 47.0299 32.64 47.0899 33.32 47.2099L33.7 47.2599L33.66 49.2099L32.33 49.1799C31.97 49.1799 31.73 49.2799 31.61 49.4699C31.49 49.6599 31.43 49.9899 31.43 50.4499V50.8299H33.61V52.8699H31.42ZM27.4 51.7799H24.39V56.2099C24.39 57.3699 24.47 58.1299 24.64 58.4899C24.81 58.8499 25.2 59.0299 25.83 59.0299L27.49 58.8999L27.56 59.8199C26.76 59.9299 26.16 59.9999 25.74 59.9999C24.83 59.9999 24.19 59.7699 23.84 59.3199C23.49 58.8699 23.31 58.0199 23.31 56.7499V47.9999H24.39V50.8199H27.39L27.4 51.7799ZM18.72 51.7799V59.7799H17.64V49.9099C17.64 48.6499 17.81 47.7899 18.16 47.3399C18.51 46.8899 19.12 46.6699 20.01 46.6699L21.76 46.7599V47.6699L20.17 47.6399C19.61 47.6399 19.23 47.7899 19.02 48.0999C18.82 48.4099 18.72 49.0199 18.72 49.9299V50.8299H21.44V51.7799H18.72ZM8.21002 55.2899C8.21002 53.6099 8.50001 52.4099 9.07001 51.7099C9.64001 51.0099 10.61 50.6499 11.98 50.6499C13.36 50.6499 14.33 50.9999 14.9 51.7099C15.47 52.4099 15.75 53.6099 15.75 55.2899C15.75 56.9699 15.49 58.1799 14.97 58.8899C14.45 59.6099 13.46 59.9699 11.99 59.9699C10.53 59.9699 9.53 59.6099 9 58.8899C8.47 58.1799 8.21002 56.9699 8.21002 55.2899ZM9.33002 55.2599C9.33002 56.6799 9.49002 57.6599 9.83002 58.1999C10.15 58.7499 10.87 59.0199 11.98 59.0199C13.09 59.0199 13.82 58.7399 14.15 58.1899C14.49 57.6399 14.65 56.6699 14.65 55.2599C14.65 53.8599 14.47 52.8999 14.09 52.3799C13.71 51.8599 13.01 51.5999 11.99 51.5999C10.97 51.5999 10.27 51.8599 9.89001 52.3699C9.52001 52.8799 9.33002 53.8499 9.33002 55.2699V55.2599ZM3.22998 51.6299C1.80998 51.6299 1.09998 52.1399 1.09998 53.1599C1.09998 53.6199 1.25001 53.9599 1.57001 54.1399C1.87001 54.3399 2.57999 54.5199 3.67999 54.7099C4.77999 54.8899 5.55 55.1499 6 55.4699C6.45 55.7899 6.67999 56.4099 6.67999 57.3199C6.67999 58.2399 6.37999 58.9099 5.79999 59.3299C5.19999 59.7599 4.35001 59.9699 3.20001 59.9699C2.55001 59.9699 1.70002 59.8799 0.650024 59.7199L0.130005 59.6399L0.200012 58.6899C1.54001 58.8899 2.56999 58.9999 3.29999 58.9999C4.01999 58.9999 4.57998 58.8699 4.97998 58.6199C5.37998 58.3699 5.58002 57.9499 5.58002 57.3499C5.58002 56.7499 5.42002 56.3499 5.08002 56.1499C4.40623 55.8593 3.69074 55.677 2.96002 55.6099C2.15185 55.5382 1.36796 55.2962 0.659973 54.8999C0.219973 54.5899 0 53.9999 0 53.1399C0 52.2799 0.299983 51.6499 0.919983 51.2599C1.60198 50.8429 2.39102 50.6344 3.19 50.6599C3.91 50.6599 4.81001 50.7399 5.89001 50.8999L6.37 50.9699L6.34003 51.9199C5.05003 51.7299 4.01997 51.6299 3.21997 51.6299" fill="#434F8B"/>
<path d="M61.2701 5.57007H51.0801V8.91007H57.92C59.77 8.91007 61.2701 7.41007 61.2701 5.57007Z" fill="#EB660B"/>
<path d="M65.2001 0H54.4301C53.5433 -3.95072e-06 52.6927 0.351568 52.0648 0.977654C51.4368 1.60374 51.0827 2.45325 51.0801 3.34H61.85C63.7 3.34 65.2001 1.84 65.2001 0Z" fill="#EB660B"/>
<path d="M56.4399 16.0401L44.77 14.5501C44.4107 14.5112 44.0721 14.3628 43.8002 14.1248C43.5282 13.8869 43.3361 13.571 43.2499 13.2201C43.0099 12.1201 43.8499 11.1401 44.9199 11.1401H51.08V8.90008H48.5599C48.117 8.90008 47.6923 8.72413 47.3791 8.41094C47.0659 8.09776 46.89 7.67299 46.89 7.23008C46.89 6.78717 47.0659 6.3624 47.3791 6.04921C47.6923 5.73602 48.117 5.56007 48.5599 5.56007H51.08V3.33008H33.45V4.76008C33.45 7.10008 35.19 9.06008 37.52 9.36008H33.45V10.8001C33.45 13.1301 35.19 15.1001 37.52 15.4001H33.45V16.8401C33.45 19.1701 35.1899 21.1401 37.5099 21.4401L55.45 23.7701C56.4 23.8901 57.0899 24.7701 56.9299 25.7501C56.7899 26.6001 55.9899 27.1801 55.1299 27.1801H41.27C40.244 27.1774 39.2275 27.3773 38.2789 27.7681C37.3302 28.1589 36.468 28.733 35.7416 29.4576C35.0152 30.1821 34.4388 31.0429 34.0456 31.9905C33.6524 32.9382 33.4499 33.9541 33.45 34.9801H54.9299C59.9299 34.9801 64.2999 31.2701 64.7299 26.3001C64.9407 23.8492 64.1956 21.4118 62.6505 19.4977C61.1054 17.5836 58.8801 16.3411 56.4399 16.0301" fill="#434F8B"/>
</g>
<defs>
<clipPath id="clip0_765_6">
<rect width="99" height="60" fill="white"/>
</clipPath>
</defs>
</svg>
